<?xml version="1.0" encoding="UTF-8"?> <svg xmlns="http://www.w3.org/2000/svg" viewBox="0 0 100 100" fill-rule="evenodd"><path d="m44.266 87.516c1.582 1.582 3.6602 2.375 5.7344 2.375s4.1484-0.79297 5.7344-2.375l31.785-31.785c3.1602-3.1602 3.1602-8.3086 0-11.465l-31.785-31.781c-3.1602-3.1602-8.3086-3.1602-11.465 0l-31.785 31.781c-3.1602 3.1602-3.1602 8.3086 0 11.465zm-29.426-40.891 31.785-31.785c0.93359-0.93359 2.1602-1.3984 3.375-1.3984s2.4492 0.46484 3.375 1.3984l31.785 31.785c1.8594 1.8594 1.8594 4.8906 0 6.7578l-31.785 31.785c-1.8672 1.8594-4.8906 1.8594-6.7578 0l-9.293-9.3008 9.9648-9.9648c0.89844 0.50781 1.9414 0.80078 3.043 0.80078 3.4414 0 6.2422-2.8008 6.2422-6.2344 0-1.1094-0.29297-2.1406-0.80078-3.043l8.9492-8.9492c0.91797 0.52344 1.9648 0.82422 3.0898 0.82422 3.4414 0 6.2422-2.8008 6.2422-6.2422s-2.8008-6.2422-6.2422-6.2422-6.2422 2.8008-6.2422 6.2422c0 1.1094 0.29297 2.1406 0.80078 3.043l-8.9453 8.9492c-0.91797-0.52344-1.9648-0.82422-3.0898-0.82422-1.1094 0-2.1484 0.29297-3.0586 0.80859l-9.0508-8.8516c0.55078-0.93359 0.875-2.0078 0.875-3.168 0-3.4414-2.8008-6.2344-6.2422-6.2344s-6.2422 2.8008-6.2422 6.2344c0 3.4414 2.8008 6.2422 6.2422 6.2422 1.0742 0 2.082-0.27344 2.9648-0.75l9.082 8.8828c-0.51562 0.91016-0.82422 1.957-0.82422 3.082s0.30859 2.1836 0.82422 3.0898l-9.9414 9.9453-20.125-20.133c-1.8555-1.8594-1.8555-4.8906 0-6.75zm38.395 13.832c0 1.6016-1.3008 2.8984-2.9102 2.8984s-2.9102-1.3008-2.9102-2.8984c0-1.6016 1.3008-2.9102 2.9102-2.9102 1.6094 0.003906 2.9102 1.3125 2.9102 2.9102zm11.676-17.398c0-1.6016 1.3008-2.9102 2.9102-2.9102 1.6094 0 2.9102 1.3008 2.9102 2.9102s-1.3008 2.9102-2.9102 2.9102c-1.6133-0.003906-2.9102-1.3086-2.9102-2.9102zm-32.051 2.8594c-1.6016 0-2.9102-1.3008-2.9102-2.9102 0-1.6016 1.3008-2.8984 2.9102-2.8984s2.9102 1.3008 2.9102 2.8984c-0.003906 1.6094-1.3047 2.9102-2.9102 2.9102z"></path></svg> 