<?xml version="1.0" encoding="UTF-8"?> <svg xmlns="http://www.w3.org/2000/svg" viewBox="0 0 100 100" fill-rule="evenodd"><path d="m52.801 36.891c2.6289 0 5.4414-3 6.2383-3.8906 0.80078-0.89062 2.3594-2.8516 2.1914-4.1406-0.078125-0.57812-0.28125-2.1211-8.3281-2.9102h-0.19141c-8.0508 0.78125-8.2617 2.3281-8.3281 2.9102-0.17969 1.2891 1.4688 3.3281 2.1914 4.1406 0.71484 0.80859 3.5977 3.8906 6.2266 3.8906zm0-8.9414c2.1797 0.14453 4.332 0.58594 6.3906 1.3203-0.46875 1.4297-4.1602 5.6211-6.3906 5.6211s-6-4.2891-6.4102-5.6094c2.0664-0.73047 4.2227-1.1602 6.4102-1.2812z"></path><path d="m81.121 69.059c-0.82031 0.003906-1.6289 0.19531-2.3594 0.5625 0.058593-0.92969 0.10938-1.8086 0.14062-2.5781v-0.12891-0.16016-3.4102l-0.003906-1.2344c0-9.7305-11.328-25.531-12.898-27.672l-1.4414-12.727c0-4-1.1602-7.0898-3.4102-9.3203-2.2734-2.1094-5.2383-3.3164-8.3398-3.3906-3.1016 0.070312-6.0742 1.2773-8.3477 3.3906-2.2617 2.2305-3.3984 5.3594-3.4219 9.3203l-1.4492 12.73c-1.5898 2.1367-12.891 17.938-12.891 27.668v1.2305c0 0.23047-0.050781 1.3906 0 3.1016-3.5117-1.3594-7.4805-2.5898-9.3008 0.10938-2 3 1.4492 6.6289 4.2305 9.5508 0.91797 0.85156 1.7148 1.8281 2.3711 2.8984 0.070312 0.46094-0.89062 0.85156-2.1484 1.3086-1.0625 0.27734-2.0391 0.80859-2.8516 1.543-0.5 0.53516-0.6875 1.293-0.48828 2 0.41016 1.4102 2.1992 3.2383 12.441 6.2109l-0.003906-0.003906c1.1016 0.32422 2.2188 0.57812 3.3516 0.76172 0.64062 0.10938 1.2891 0.16016 1.9375 0.16016 0.67188-0.007813 1.3398-0.070313 2-0.19141 0.66016 0.125 1.332 0.1875 2 0.19141h25.102 0.87109 0.83984c3.7305-0.003907 7.2344-1.793 9.4297-4.8086 0.67969-0.92578 1.3008-1.8906 1.8594-2.8906 5.2305-9.2812 5.2305-11.852 4.5391-13.141-0.35547-0.64453-1.0234-1.0547-1.7578-1.082zm-52.422-7c0-9.5703 12.531-26.52 12.66-26.691v0.003906c0.10547-0.14062 0.17188-0.30859 0.19141-0.48047l1.4492-13.012v-0.10938c0-3.4219 1-6.1016 2.8086-7.9492 1.9219-1.7461 4.4062-2.75 7-2.8203 2.5781 0.085938 5.043 1.0859 6.9531 2.8203 1.8594 1.8516 2.8008 4.5312 2.8008 8h-0.003906c-0.003906 0.035157-0.003906 0.074219 0 0.10938l1.4805 13.059c0.023438 0.17578 0.089844 0.33984 0.19141 0.48047 0.12891 0.17188 12.672 17.121 12.672 26.691v4.2383c0 1.1484-0.10938 2.5781-0.25 4.1484-0.53906 0.17969-0.92969 0.23047-1.1016 0v0.003906c-0.26953-1.2266-0.375-2.4844-0.3125-3.7422-0.058593-3.6992-0.12891-8.2305-2.8711-9.5117-1.2617-5.0586-2.8984-8.8203-4.9414-11.352l0.003907 0.003907c-0.15625-0.23438-0.40234-0.39062-0.67969-0.43359s-0.5625 0.03125-0.78125 0.20703c-0.21875 0.17969-0.35547 0.4375-0.37109 0.71875s0.085938 0.55859 0.28125 0.75781c1.7617 2.1992 3.2109 5.4492 4.3594 9.8086v0.003907c-1.3164 0.34766-2.4453 1.1914-3.1484 2.3594-1.75-8.8711-7.4805-15.371-14.289-15.371-7.8008 0-14.16 8.4883-14.801 19.25-1.6992-1.5391-2.7891-2-3.5781-2.1211 1.2617-6.5195 3-11.129 5.3008-14h-0.003906c0.34375-0.42578 0.27734-1.0508-0.14844-1.3984-0.20703-0.16797-0.47266-0.24609-0.73828-0.21875-0.26172 0.027343-0.50391 0.16016-0.67188 0.36719-2.6914 3.3398-4.6797 8.8086-6 16.59-0.23828 0.64062-0.35156 1.3203-0.33203 2-0.17188 1.1211-0.32812 2.2695-0.48047 3.4688l0.003906 0.003906c-0.89844-0.14453-1.7734-0.41016-2.6016-0.78125v-0.92969zm26.301 16.461c0.12891 1.1406 0.32422 2.2734 0.57812 3.3906 0.11328 0.49219 0.25391 0.98047 0.42188 1.4609-1.0195 0.40625-2.1055 0.61719-3.1992 0.62891-1.8711-0.023438-3.6914-0.60156-5.2305-1.6602 0.85156-3.1133 0.375-6.4375-1.3086-9.1914-0.60547-0.98047-1.2734-1.9219-2-2.8203-1.7188-2.1914-3.1484-3.8711-4.3516-5.1484v-0.17969c0-10.48 5.7695-19 12.859-19 6.4219 0 11.738 7 12.699 16.078-0.41016 0.82031-0.78906 1.6602-1.1406 2.4609-0.43359 1.1797-1.0234 2.293-1.7578 3.3125-0.41016 0.23828-1.1289-0.5-2-1.4805-0.66797-0.85547-1.5273-1.543-2.5117-2-0.69141-0.27344-1.4766-0.15234-2.0586 0.30859-1.1406 0.89062-2.1484 3.25-1 13.84zm-16.738 10.25c-0.71875 0.16016-1.457 0.23438-2.1914 0.21875-0.48047-0.007812-0.95703-0.046875-1.4297-0.11719l-0.80078-0.16016c-0.76172-0.14844-1.5312-0.32031-2.3086-0.55078-10.871-3.1602-11.082-4.8008-11.082-4.8594 0.019531-0.046875 0.046875-0.09375 0.082031-0.12891 0.59766-0.45703 1.2773-0.79297 2-1 1.5781-0.57812 3.7305-1.3711 3.4414-3.4688-0.14062-1-1.1484-2.1289-2.9219-4-2.1719-2.2812-5.1406-5.3984-4-7.0586v-0.003906c0.44531-0.49219 1.1016-0.73047 1.7578-0.64062 1.6484 0 4 0.89844 6 1.6719l0.32031 0.12891 0.71875 0.28125 1 0.39062 0.003906-0.003906c0.72266 0.29688 1.4805 0.49609 2.2578 0.58984 0.26562 0.027344 0.53125 0.007812 0.78906-0.058594 0.54687-0.12109 1.0234-0.44531 1.332-0.91016 0.55078-1.1094 0.75391-2.3555 0.58984-3.5781v-0.78906-0.003906c-0.042968-0.50391 0.019532-1.0078 0.17969-1.4883 0.019531-0.042969 0.046875-0.082031 0.078125-0.10938 0.058594 0 0.89844-0.21094 3.9219 2.8984 0.32031 0.32812 0.67188 0.71094 1 1.1211s0.73047 0.82031 1.1406 1.2891c0.76953 0.89844 1.6094 1.9297 2.5703 3.1406 0.65625 0.83594 1.2656 1.7109 1.8203 2.6211 1.25 2.0312 1.7148 4.457 1.2969 6.8086-0.066406 0.33984-0.15234 0.67188-0.25781 1-0.10156 0.33984-0.22656 0.67578-0.37109 1-0.23438 0.59766-0.53125 1.168-0.89062 1.6992-1.4062 2.0938-3.5781 3.5547-6.0469 4.0703zm4.5391 0.23047c1.2617-0.84375 2.3477-1.9258 3.1992-3.1797 0.33594-0.50391 0.63672-1.0352 0.89844-1.582 1.7656 1.1289 3.8086 1.7383 5.9023 1.7617 1.3984-0.007812 2.7852-0.28906 4.0781-0.82031 0.88672 1.5312 2.1133 2.8359 3.582 3.8203zm33.809-6.6797c-0.51953 0.92969-1.0977 1.8242-1.7305 2.6797-0.070312 0.10156-0.16016 0.17969-0.23828 0.28125-1.0195 1.3125-2.3516 2.3438-3.8789 3-1.4219 0.59375-2.9648 0.83984-4.5 0.70703-0.40625-0.023437-0.80469-0.074219-1.2031-0.14844-2.6641-0.53906-4.9805-2.1797-6.3672-4.5195-0.17188-0.28516-0.32422-0.57812-0.46094-0.87891-0.14453-0.30469-0.26953-0.61328-0.37891-0.92969-0.12891-0.32812-0.23437-0.66406-0.32031-1-0.24609-1.0586-0.42188-2.1328-0.53125-3.2109-1.2305-11.262 0.21094-12.07 0.26953-12.102h0.14062c0.64844 0.39062 1.2148 0.89453 1.6797 1.4922 1.1406 1.2383 2.6914 2.9297 4.5195 1.8594 0.71875-0.42188 1.2695-1.3789 2-3 0.17969-0.39062 0.37109-0.80078 0.57812-1.2695 0.21094-0.46875 0.28906-0.67188 0.44922-1 0.28125-0.62891 0.58984-1.2695 0.89844-1.8789 0.94922-1.8203 2-3.3789 3.1914-3.5312h0.003907c0.14844-0.019532 0.30078-0.019532 0.44922 0 2 0.41016 2 4.7109 2.0703 7.8594-0.10156 1.5117 0.058594 3.0312 0.46875 4.4883 0.066406 0.14453 0.14844 0.28125 0.24219 0.41016 0.5625 0.77734 1.5391 1.1367 2.4688 0.91016 0.33984-0.066406 0.67578-0.16016 1-0.27734 0.37109-0.12891 0.73047-0.28125 1.0703-0.42969l0.28906-0.14062c0.66406-0.35938 1.3828-0.59766 2.1328-0.70312 0.046875-0.003906 0.097656-0.003906 0.14844 0 0 0 1.0898 1.4727-4.4609 11.332z"></path></svg> 