<?xml version="1.0" encoding="UTF-8"?> <svg xmlns="http://www.w3.org/2000/svg" viewBox="0 0 100 100" fill-rule="evenodd"><path d="m30.383 54.805c0.36719 0.21094 0.61719 0.71875 0.71484 1.0859 0.45312 1.7578 1.168 3.4766 2.0977 5.043 0.38281 0.64844 0.31641 1.4375-0.16406 2.0234l-1.168 1.3984c-0.27734 0.33203-0.25781 0.82031 0.054688 1.1328l3.6562 3.6562c0.31641 0.31641 0.80469 0.33203 1.1328 0.054688l1.3984-1.168c0.58203-0.48438 1.3672-0.54688 2.0234-0.16406 1.4375 0.85156 3 1.5234 4.6094 1.9766v-8.1602c-6.3672-3.1797-8.5859-11.203-4.7031-17.195 1.1641-1.7891 2.7852-3.2422 4.7031-4.2031v-8.1602c-1.6094 0.46094-3.1719 1.1289-4.6172 1.9844-0.64844 0.38281-1.4375 0.31641-2.0156-0.16406l-1.3984-1.168c-0.33594-0.27734-0.82031-0.25781-1.1328 0.054687l-3.6602 3.6562c-0.31641 0.31641-0.33203 0.80469-0.050781 1.1328l1.168 1.3984c0.48438 0.58203 0.54297 1.375 0.16016 2.0234-0.92578 1.5664-1.6406 3.2812-2.0938 5.0469-0.1875 0.72656-0.78906 1.2422-1.5391 1.3125l-1.8164 0.16016c-0.4375 0.039062-0.76563 0.40234-0.76563 0.83984v5.1719c0 0.44531 0.32813 0.80469 0.76563 0.83984 0.61328 0.054688 2.1328 0.10156 2.6406 0.39063zm53.906-1.2891c0-1.0312 1.5625-1.0312 1.5625 0v28.535c0 2.5781-2.1016 4.6836-4.6875 4.6836h-27.918c-1.0312 0-1.0312-1.5625 0-1.5625h27.914c1.7227 0 3.1289-1.4062 3.1289-3.125zm-68.43-5.0586c0 1.0312-1.5664 1.0312-1.5664 0v-28.535c0-2.5859 2.1094-4.6875 4.6875-4.6875h27.918c1.0234 0 1.0234 1.5625 0 1.5625l-27.914-0.003906c-1.7227 0-3.125 1.4062-3.125 3.1289zm34.215 3.5156 3.8281-3.3047c0.011718-5.5625-0.078125-11.164-0.078125-16.75-0.066407-4.2031 1.5312-8.1953 4.4766-11.188 4.7031-4.7812 11.734-5.8828 17.516-3.2891l-0.33984-3.7695c-0.03125-0.35938 0.1875-0.6875 0.50781-0.80469l4.3398-1.5898c-8.8086-4.7188-20.023-3.3164-27.395 4.1797-4.0312 4.1016-6.5391 9.7031-6.625 15.867v17.391zm3.8203-1.2383-3.3125 2.8633c-0.29688 0.25391-0.74219 0.25-1.0312-0.007812l-3.25-2.8125c0 6.5078 0.023438 13.008 0.023438 19.516 0 4.2578-1.7031 8.125-4.4844 10.953-4.9492 5.0312-12.477 5.9844-18.414 2.8516l-4.9766 1.1875 0.35156 4.8281c8.9531 5.3906 20.758 4.1875 28.414-3.6016 4.0312-4.1016 6.5469-9.7031 6.6328-15.875-0.003906-6.6445 0.03125-13.266 0.046875-19.902zm-36.734 38.289-0.31641-4.2852h0.007812c-0.027343-0.375 0.21875-0.72656 0.59375-0.8125l4.1328-0.98438c-7.6406-5.543-8.6211-16.621-2.1367-23.406 1.832-1.9258 4.1562-3.3828 6.7734-4.168-0.49219-0.44922-0.78906-1.0859-0.78906-1.7891v-5.1719c0-0.21875 0.027344-0.44531 0.085938-0.64844-4.3672 1.0195-8.2656 3.2773-11.301 6.3828-9.8164 10.031-8.4609 26.602 2.9492 34.883zm64.898-76.711-4.9766 1.8164 0.375 4.1719c8.543 5.1328 10.117 16.961 3.25 24.145-1.8359 1.9258-4.1641 3.375-6.7773 4.168 0.49609 0.44531 0.80469 1.0859 0.80469 1.7891v5.1719c0 0.21875-0.03125 0.42969-0.085937 0.63281 4.4297-1.0234 8.3711-3.3164 11.422-6.4844 10.008-10.383 8.1016-27.496-4.0117-35.41zm-26.629 47.582c1.4531-0.86719 2.668-2.0859 3.543-3.5391h-3.5391zm4.3164-5.0977c0.94531-2.4023 0.95703-5.1055 0.039062-7.5156h-4.3281l-0.015625 7.5156zm-0.70703-9.0781c-0.89062-1.5117-2.1562-2.7734-3.6602-3.6719v3.6719zm-3.6094-15.199c1.8906 0.49219 3.7031 1.2461 5.3906 2.2422 0.078126 0.046875 0.15625 0.039062 0.22656-0.015625l1.3984-1.168c0.95313-0.79688 2.3516-0.73047 3.2344 0.14453l3.6602 3.6602c0.875 0.875 0.94141 2.2812 0.14453 3.2344-0.16016 0.19531-1.207 1.3789-1.2188 1.5117 0 0.039063 0.007813 0.078125 0.03125 0.11719 1 1.6992 1.75 3.5039 2.25 5.4297 3.543-0.28125 6.7148-1.875 9.0312-4.3047 5.2383-5.4805 5.1328-14.262-0.22656-19.625-5.5156-5.5156-14.473-5.4805-19.941 0.078125-2.2383 2.2773-3.707 5.3164-3.9805 8.6953zm15.113 25.812c-0.49609 1.9141-1.25 3.7148-2.25 5.4062-0.050781 0.09375-0.03125 0.16406 0.015625 0.22656l1.168 1.3984c0.79688 0.95312 0.73438 2.3516-0.14453 3.2344l-3.6602 3.6602c-0.875 0.875-2.2734 0.94141-3.2344 0.14453-0.19531-0.16016-1.3789-1.207-1.5117-1.2188-0.039062 0-0.078125 0.007812-0.11719 0.03125-1.6992 1-3.5039 1.7578-5.4375 2.2539-0.29297 6.2617-2.9219 11.93-7.0547 16.133-9.6094 9.7812-25.359 9.8438-35.055 0.14844-9.5117-9.5156-9.582-25.078-0.17578-34.703 4.2422-4.3359 10.062-7.125 16.523-7.4219 0.49609-1.9102 1.2461-3.6992 2.2422-5.3828 0.039063-0.078126 0.039063-0.14844-0.015624-0.22656l-1.1719-1.4023c-0.79687-0.95312-0.73437-2.3594 0.14453-3.2344l3.6562-3.6602c0.88281-0.875 2.2812-0.94141 3.2344-0.14453 0.19531 0.16016 1.3828 1.207 1.5117 1.2109 0.039062 0.007813 0.085937-0.007812 0.12109-0.027344 1.6992-1 3.5039-1.7578 5.4375-2.2539 0.29297-6.2617 2.9219-11.938 7.0586-16.141 9.6055-9.7773 25.359-9.8438 35.051-0.14844 9.4609 9.4609 9.6016 24.953 0.31641 34.586-4.25 4.4062-10.125 7.2383-16.652 7.5312zm-15.137 13.512c1.6094-0.45312 3.1719-1.125 4.6172-1.9766 0.64844-0.38281 1.4336-0.31641 2.0156 0.16406l1.3984 1.168c0.33203 0.27734 0.82031 0.25781 1.1328-0.054688l3.6562-3.6562c0.31641-0.31641 0.33203-0.80469 0.054688-1.1328l-1.168-1.3984c-0.48438-0.58203-0.54688-1.375-0.16016-2.0234 0.92578-1.5664 1.6406-3.2812 2.0938-5.043 0.1875-0.73047 0.78906-1.2461 1.5391-1.3125l1.8164-0.16406c0.4375-0.039062 0.76562-0.39844 0.76562-0.83984v-5.1719c0-0.4375-0.32812-0.80469-0.76562-0.83984l-1.8125-0.16016c-0.75391-0.070313-1.3555-0.58594-1.5469-1.3125-0.45312-1.7656-1.168-3.4805-2.0938-5.0469-0.38281-0.64844-0.31641-1.4375 0.16406-2.0234l1.168-1.3984c0.27734-0.33203 0.25781-0.82031-0.054688-1.1328l-3.6602-3.6562c-0.3125-0.31641-0.79688-0.33203-1.1328-0.054687l-1.3984 1.168c-0.57812 0.48438-1.3672 0.54688-2.0156 0.16406-1.4453-0.85547-3-1.5234-4.6172-1.9844v8.1602c6.3672 3.1836 8.5859 11.203 4.7031 17.195-1.1562 1.7852-2.7734 3.2383-4.6836 4.1953zm-25.812-13.547c-3.543 0.28125-6.7148 1.8828-9.0312 4.3047-5.2344 5.4805-5.1328 14.262 0.23438 19.621 5.5156 5.5156 14.465 5.4805 19.938-0.078125 2.2422-2.2734 3.707-5.3203 3.9805-8.6953-1.9102-0.49609-3.7031-1.2461-5.3867-2.2344-0.085937-0.039063-0.16016-0.039063-0.22656 0.015625l-1.3984 1.168c-0.95312 0.79687-2.3594 0.73047-3.2344-0.14453l-3.6602-3.6602c-0.875-0.88281-0.94141-2.2812-0.14453-3.2344 0.16016-0.19531 1.2031-1.3789 1.2109-1.5117 0.007812-0.039062-0.007812-0.078125-0.027344-0.11719-1.0039-1.6992-1.7539-3.5078-2.2539-5.4336zm15.172 3.6328v-3.6758h-3.6562c0.88672 1.5117 2.1484 2.7773 3.6562 3.6758zm-4.4062-5.2383h4.3789v-7.5391h-4.3281c-0.95703 2.4062-0.97656 5.1211-0.050781 7.5391zm0.82422-9.1016h3.5547v-3.5273c-1.4492 0.86719-2.6758 2.082-3.5547 3.5273z"></path></svg> 