<?xml version="1.0" encoding="UTF-8"?> <svg xmlns="http://www.w3.org/2000/svg" viewBox="0 0 100 100" fill-rule="evenodd"><path d="m77.746 65.328h-2.9102c-0.80078 0-1.4531-0.65625-1.4531-1.4531 0-0.80078 0.65625-1.4531 1.4531-1.4531h2.9102c8.7617 0 15.891-7.1094 15.891-15.871 0-3.6914-1.2891-7.2734-3.6367-10.109-2.3086-2.8008-5.5469-4.7266-9.0742-5.4531-0.69141-0.14453-1.1836-0.74609-1.1641-1.4531v-0.18359-0.14453c0-12.562-10.238-22.801-22.816-22.801-6.4727 0-12.672 2.7617-17 7.582-0.39844 0.45312-1.0352 0.60156-1.6016 0.38281-1.8164-0.69141-3.7266-1.0547-5.6719-1.0547-8.7617 0-15.891 7.1094-15.891 15.871 0 0.39844 0.019531 0.83594 0.054688 1.2891 0.054687 0.61719-0.28906 1.1992-0.87109 1.4531-5.8359 2.5625-9.6016 8.2891-9.6016 14.617 0 4.2383 1.6562 8.2188 4.6562 11.219s6.9805 4.6562 11.238 4.6562h2.9102c0.80078 0 1.4531 0.65625 1.4531 1.4531 0 0.80078-0.65625 1.4531-1.4531 1.4531h-2.9102c-5.0195 0-9.7461-1.9453-13.289-5.4922-3.5508-3.5625-5.5156-8.2734-5.5156-13.289 0-7.1445 4.0547-13.637 10.418-16.801v-0.50781c0-10.344 8.4375-18.781 18.801-18.781 1.9805 0 3.9102 0.30859 5.7812 0.91016 4.8203-5.0039 11.512-7.8398 18.492-7.8398 13.926 0 25.289 11.09 25.727 24.891 3.7266 1.0195 7.0898 3.1641 9.582 6.1641 2.7656 3.3633 4.293 7.6016 4.293 11.965 0 10.344-8.4375 18.781-18.801 18.781z"></path><path d="m74.855 50.547h-49.711c-0.80078 0-1.4531-0.65625-1.4531-1.4531v-14.711c0-0.80078 0.65625-1.4531 1.4531-1.4531h49.691c0.80078 0 1.4531 0.65625 1.4531 1.4531v14.707c0.019532 0.80078-0.63281 1.457-1.4336 1.457zm-48.254-2.9102h46.781v-11.801h-46.781z"></path><path d="m67.492 43.199h-12.891c-0.80078 0-1.4531-0.65625-1.4531-1.4531 0-0.80078 0.65625-1.4531 1.4531-1.4531h12.891c0.80078 0 1.4531 0.65625 1.4531 1.4531 0 0.80078-0.65625 1.4531-1.4531 1.4531z"></path><path d="m74.855 74.438h-49.711c-0.80078 0-1.4531-0.65625-1.4531-1.4531v-14.711c0-0.80078 0.65625-1.4531 1.4531-1.4531h49.691c0.80078 0 1.4531 0.65625 1.4531 1.4531v14.711c0.019532 0.79688-0.63281 1.4531-1.4336 1.4531zm-48.254-2.9102h46.781v-11.801h-46.781z"></path><path d="m67.492 67.09h-12.891c-0.80078 0-1.4531-0.65625-1.4531-1.4531 0-0.80078 0.65625-1.4531 1.4531-1.4531h12.891c0.80078 0 1.4531 0.65625 1.4531 1.4531 0 0.80078-0.65625 1.4531-1.4531 1.4531z"></path><path d="m54.602 59.746h-9.1992c-0.80078 0-1.4531-0.65625-1.4531-1.4531l-0.003907-9.2031c0-0.80078 0.65625-1.4531 1.4531-1.4531h9.1992c0.80078 0 1.4531 0.65625 1.4531 1.4531v9.1836c0.003907 0.81641-0.65234 1.4727-1.4492 1.4727zm-7.7461-2.9102h6.2891v-6.2891h-6.2891z"></path><path d="m54.602 85.473c-0.80078 0-1.4531-0.65625-1.4531-1.4531v-9.582h-6.2891v9.582c0 0.80078-0.65625 1.4531-1.4531 1.4531-0.80078 0-1.4531-0.65625-1.4531-1.4531v-11.035c0-0.80078 0.65625-1.4531 1.4531-1.4531h9.1992c0.80078 0 1.4531 0.65625 1.4531 1.4531v11.035c-0.003906 0.79688-0.66016 1.4531-1.457 1.4531z"></path><path d="m60.129 85.473h-20.258c-0.80078 0-1.4531-0.65625-1.4531-1.4531 0-0.80078 0.65625-1.4531 1.4531-1.4531h20.238c0.80078 0 1.4531 0.65625 1.4531 1.4531s-0.63672 1.4531-1.4336 1.4531z"></path><path d="m28.836 89.145c-0.80078 0-1.4531-0.65625-1.4531-1.4531v-7.3438c0-0.30859 0.10938-0.61719 0.28906-0.87109l5.5273-7.3438c0.49219-0.63672 1.3984-0.76172 2.0352-0.28906 0.63672 0.49219 0.76172 1.3984 0.28906 2.0352l-5.2383 6.9648v6.8711c0.003906 0.77734-0.64844 1.4297-1.4492 1.4297z"></path><path d="m28.836 96.492c-2.8359 0-5.1289-2.3086-5.1289-5.1289 0-2.8164 2.3086-5.1289 5.1289-5.1289 2.8164 0 5.1289 2.3086 5.1289 5.1289 0 2.8359-2.293 5.1289-5.1289 5.1289zm0-7.3477c-1.2383 0-2.2188 1-2.2188 2.2188s1 2.2188 2.2188 2.2188 2.2188-1 2.2188-2.2188-1-2.2188-2.2188-2.2188z"></path><path d="m71.164 89.145c-0.80078 0-1.4531-0.65625-1.4531-1.4531v-6.8711l-5.2383-6.9648c-0.49219-0.63672-0.34375-1.5469 0.28906-2.0352 0.63672-0.49219 1.5469-0.34375 2.0352 0.28906l5.5273 7.3438c0.18359 0.25391 0.28906 0.5625 0.28906 0.87109v7.3438c0.003907 0.82422-0.64844 1.4766-1.4492 1.4766z"></path><path d="m71.164 96.492c-2.8359 0-5.1289-2.3086-5.1289-5.1289 0-2.8164 2.3086-5.1289 5.1289-5.1289 2.8164 0 5.1289 2.3086 5.1289 5.1289 0.015625 2.8359-2.293 5.1289-5.1289 5.1289zm0-7.3477c-1.2383 0-2.2188 1-2.2188 2.2188s1 2.2188 2.2188 2.2188 2.2188-1 2.2188-2.2188-0.98437-2.2188-2.2188-2.2188z"></path><path d="m33.965 41.746c0 1.9375-2.9102 1.9375-2.9102 0 0-1.9414 2.9102-1.9414 2.9102 0"></path><path d="m41.328 41.746c0 1.9375-2.9102 1.9375-2.9102 0 0-1.9414 2.9102-1.9414 2.9102 0"></path><path d="m48.691 41.746c0 1.9375-2.9102 1.9375-2.9102 0 0-1.9414 2.9102-1.9414 2.9102 0"></path><path d="m33.965 65.637c0 1.9375-2.9102 1.9375-2.9102 0 0-1.9414 2.9102-1.9414 2.9102 0"></path><path d="m41.328 65.637c0 1.9375-2.9102 1.9375-2.9102 0 0-1.9414 2.9102-1.9414 2.9102 0"></path><path d="m48.691 65.637c0 1.9375-2.9102 1.9375-2.9102 0 0-1.9414 2.9102-1.9414 2.9102 0"></path></svg> 