<?xml version="1.0" encoding="UTF-8"?> <svg xmlns="http://www.w3.org/2000/svg" viewBox="0 0 100 100" fill-rule="evenodd"><path d="m4.3008 61.914c0 18.66 15.125 33.789 33.789 33.789 18.66 0 33.789-15.133 33.789-33.789 0-0.66797-0.11719-1.2383-0.35547-1.8398-0.36719-0.92188 0.52344-1.8281 1.4336-1.543v-0.003906c7.543 2.3672 15.82 0.90234 22.09-3.9727-6.7266-5.2305-15.738-6.5156-23.637-3.4297-0.96094 0.375-1.875-0.59375-1.5156-1.5156 3.0742-7.8633 1.8203-16.887-3.4297-23.637-3.1406 4.0391-4.8984 8.9102-5.0664 14.023 3.7578 1.7227 3.2656 6.8359-0.62891 7.9141-0.10547 0.027344-0.20703 0.042969-0.3125 0.042969l-47 0.003906c-7.1484 0-9.1562 8.1797-9.1562 13.961zm8.9844-18.652c-0.64844 0-1.1719-0.52344-1.1719-1.1719 0-0.64844 0.52344-1.1719 1.1719-1.1719h43.77c0.64844 0 1.1719 0.52344 1.1719 1.1719 0 0.64844-0.52344 1.1719-1.1719 1.1719zm10.941-9.5625c0 0.64844-0.52344 1.1719-1.1719 1.1719-0.64844 0-1.1719-0.52344-1.1719-1.1719v-6.9922c0-0.64844 0.52344-1.1719 1.1719-1.1719 0.64844 0 1.1719 0.52344 1.1719 1.1719zm4.8867 0c0 0.64844-0.52344 1.1719-1.1719 1.1719-0.64844 0-1.1719-0.52344-1.1719-1.1719v-6.9922c0-0.64844 0.52344-1.1719 1.1719-1.1719 0.64844 0 1.1719 0.52344 1.1719 1.1719zm-9.7695 0c0 0.64844-0.52344 1.1719-1.1719 1.1719s-1.1719-0.52344-1.1719-1.1719v-6.9922c0-0.64844 0.52344-1.1719 1.1719-1.1719s1.1719 0.52344 1.1719 1.1719zm-7.2305 3.1328v-13.254c0-0.95703 0.78906-1.7422 1.7422-1.7422h18.398c0.95703 0 1.7422 0.78906 1.7422 1.7422v13.254c0 0.95703-0.78906 1.7422-1.7422 1.7422h-18.398c-0.95703 0-1.7422-0.78906-1.7422-1.7422zm2.3438-12.652h17.199v12.055h-17.199zm9.7695-10.359c0 0.64844-0.52344 1.1719-1.1719 1.1719-0.64844 0-1.1719-0.52344-1.1719-1.1719v-6.9922c0-0.64844 0.52344-1.1719 1.1719-1.1719 0.64844 0 1.1719 0.52344 1.1719 1.1719zm4.8867 0c0 0.64844-0.52344 1.1719-1.1719 1.1719-0.64844 0-1.1719-0.52344-1.1719-1.1719v-6.9922c0-0.64844 0.52344-1.1719 1.1719-1.1719 0.64844 0 1.1719 0.52344 1.1719 1.1719zm-9.7695 0c0 0.64844-0.52344 1.1719-1.1719 1.1719s-1.1719-0.52344-1.1719-1.1719v-6.9922c0-0.64844 0.52344-1.1719 1.1719-1.1719s1.1719 0.52344 1.1719 1.1719zm-7.2305 3.1289c0 0.95703 0.78906 1.7422 1.7422 1.7422h18.398c0.95703 0 1.7422-0.78906 1.7422-1.7422l0.003906-13.254c0-0.95703-0.78906-1.7422-1.7422-1.7422h-18.398c-0.95703 0-1.7422 0.78906-1.7422 1.7422v13.254zm2.3438-12.652v12.055h17.199v-12.055zm34 29.402c0 0.64844-0.52344 1.1719-1.1719 1.1719-0.64844 0-1.1719-0.52344-1.1719-1.1719v-6.9922c0-0.64844 0.52344-1.1719 1.1719-1.1719 0.64844 0 1.1719 0.52344 1.1719 1.1719zm-4.8867 0c0 0.64844-0.52344 1.1719-1.1719 1.1719-0.64844 0-1.1719-0.52344-1.1719-1.1719v-6.9922c0-0.64844 0.52344-1.1719 1.1719-1.1719 0.64844 0 1.1719 0.52344 1.1719 1.1719zm9.7734 0c0 0.64844-0.52344 1.1719-1.1719 1.1719s-1.1719-0.52344-1.1719-1.1719v-6.9922c0-0.64844 0.52344-1.1719 1.1719-1.1719s1.1719 0.52344 1.1719 1.1719zm2.5391 2.5312h-17.199v-12.055h17.199zm2.3438-12.652v13.254c0 0.95703-0.78906 1.7422-1.7422 1.7422h-18.398c-0.95703 0-1.7422-0.78906-1.7422-1.7422v-13.254c0-0.95703 0.78906-1.7422 1.7422-1.7422h18.398c0.95703 0 1.7422 0.78906 1.7422 1.7422zm-36.543 32.523c3.2109 0 5.8125 2.6016 5.8125 5.8125 0 3.207-2.6016 5.8125-5.8125 5.8125-3.207 0-5.8125-2.6016-5.8125-5.8125 0-3.207 2.6016-5.8125 5.8125-5.8125zm0 2.3438c1.9141 0 3.4688 1.5508 3.4688 3.4688 0 1.9141-1.5508 3.4688-3.4688 3.4688-1.9141 0-3.4688-1.5508-3.4688-3.4688 0-1.9141 1.5508-3.4688 3.4688-3.4688zm-19.727 3.4688c0-7.1328 2.8203-16.305 11.5-16.305h46.836c0.78125-0.26953 1.3398-0.93359 1.3398-1.7734 0-0.99219-0.77734-1.625-1.6719-1.8828-0.52734-0.11328-0.92188-0.58203-0.92188-1.1445 0-6.418 2.3125-12.586 6.5273-17.422 0.46484-0.54297 1.2969-0.5625 1.7734-0.019531 5.9648 6.8242 7.9883 16.18 5.5039 24.805 2.3867-0.6875 4.875-1.0391 7.3594-1.0391 6.418 0 12.582 2.3125 17.422 6.5273 0.54297 0.46484 0.5625 1.2969 0.019531 1.7734-6.4297 5.6172-15.168 7.7812-23.457 5.8555 0.019531 0.20703 0.027344 0.41406 0.027344 0.625 0 19.953-16.176 36.133-36.133 36.133-19.949 0-36.125-16.18-36.125-36.133z" fill-rule="evenodd"></path></svg> 