<?xml version="1.0" encoding="UTF-8"?> <svg xmlns="http://www.w3.org/2000/svg" viewBox="0 0 100 100" fill-rule="evenodd"><path d="m78.125 15.625h-3.125v-3.125c0-1.6562-0.65625-3.2461-1.8281-4.4219-1.1758-1.1719-2.7656-1.8281-4.4219-1.8281h-46.875c-1.6562 0-3.2461 0.65625-4.4219 1.8281-1.1719 1.1758-1.8281 2.7656-1.8281 4.4219v65.625c0 1.6562 0.65625 3.2461 1.832 4.418 1.1719 1.1758 2.7617 1.832 4.418 1.832h3.125v3.125c0 1.6562 0.65625 3.2461 1.832 4.418 1.1719 1.1758 2.7617 1.832 4.418 1.832h3.6562c0.86328 0 1.5625-0.69922 1.5625-1.5625s-0.69922-1.5625-1.5625-1.5625h-3.6562c-1.7227-0.003906-3.1211-1.4023-3.125-3.125v-3.125h26.562c0.31641 0 0.63672-0.015625 0.95312-0.046875 5.043-0.24219 9.8164-2.3516 13.391-5.9219 3.5703-3.5742 5.6797-8.3477 5.9219-13.391 0.03125-0.31641 0.046875-0.63672 0.046875-0.95312v-35.938c0-0.86328-0.69922-1.5625-1.5625-1.5625s-1.5625 0.69922-1.5625 1.5625v35.938c0 1.6562-0.65625 3.2461-1.832 4.418-1.1719 1.1758-2.7617 1.832-4.418 1.832h-3.125c-0.86328 0.003906-1.5586 0.69922-1.5625 1.5625v3.125c0 1.6562-0.65625 3.2461-1.832 4.418-1.1719 1.1758-2.7617 1.832-4.418 1.832h-32.812c-1.7227-0.003906-3.1211-1.4023-3.125-3.125v-65.625c0.003906-1.7227 1.4023-3.1211 3.125-3.125h46.875c1.7227 0.003906 3.1211 1.4023 3.125 3.125v9.375c0 0.86328 0.69922 1.5625 1.5625 1.5625s1.5625-0.69922 1.5625-1.5625v-3.125h3.125c1.7227 0.003906 3.1211 1.4023 3.125 3.125v65.625c-0.003906 1.7227-1.4023 3.1211-3.125 3.125h-36.969c-0.86328 0-1.5625 0.69922-1.5625 1.5625s0.69922 1.5625 1.5625 1.5625h36.969c1.6562 0 3.2461-0.65625 4.418-1.832 1.1758-1.1719 1.832-2.7617 1.832-4.418v-65.625c0-1.6562-0.65625-3.2461-1.8281-4.4219-1.1758-1.1719-2.7656-1.8281-4.4219-1.8281zm-14.062 59.375v-1.5625h1.5625c1.3828 0 2.75-0.30859 4-0.90625-1.5391 2.6953-3.7734 4.9297-6.4688 6.4688 0.59766-1.25 0.90625-2.6172 0.90625-4z"></path><path d="m29.418 18.75c0.86328 0 1.5625-0.69922 1.5625-1.5625s-0.69922-1.5625-1.5625-1.5625h-2.8555c-1.7266 0-3.125 1.3984-3.125 3.125v10.938c0 1.7266 1.3984 3.125 3.125 3.125h20.312c1.7266 0 3.125-1.3984 3.125-3.125v-10.938c0-1.7266-1.3984-3.125-3.125-3.125h-11.207c-0.86328 0-1.5625 0.69922-1.5625 1.5625s0.69922 1.5625 1.5625 1.5625h11.207v10.938h-20.312v-10.938z"></path><path d="m65.625 37.5h-40.625c-0.86328 0-1.5625 0.69922-1.5625 1.5625s0.69922 1.5625 1.5625 1.5625h40.625c0.86328 0 1.5625-0.69922 1.5625-1.5625s-0.69922-1.5625-1.5625-1.5625z"></path><path d="m65.625 45.312h-40.625c-0.86328 0-1.5625 0.69922-1.5625 1.5625s0.69922 1.5625 1.5625 1.5625h40.625c0.86328 0 1.5625-0.69922 1.5625-1.5625s-0.69922-1.5625-1.5625-1.5625z"></path><path d="m67.188 54.688c0-0.41406-0.16406-0.8125-0.45703-1.1055s-0.69141-0.45703-1.1055-0.45703h-40.625c-0.86328 0-1.5625 0.69922-1.5625 1.5625s0.69922 1.5625 1.5625 1.5625h40.625c0.41406 0 0.8125-0.16406 1.1055-0.45703s0.45703-0.69141 0.45703-1.1055z"></path><path d="m43.797 62.121-3.125 12.5c-0.10547 0.40234-0.042969 0.83203 0.17188 1.1875 0.21094 0.35938 0.55859 0.61719 0.96484 0.71484 0.40234 0.10156 0.82812 0.039062 1.1836-0.17578 0.35937-0.21484 0.61328-0.56641 0.71094-0.96875l3.125-12.5c0.20312-0.83594-0.30469-1.6758-1.1406-1.8867-0.83203-0.20703-1.6797 0.29687-1.8906 1.1289z"></path><path d="m30.145 74.543c0.29297 0.29297 0.69141 0.45703 1.1055 0.45703s0.8125-0.16406 1.1055-0.45703l4.6875-4.6875c0.29297-0.29297 0.45703-0.69141 0.45703-1.1055s-0.16406-0.8125-0.45703-1.1055l-4.6875-4.6875c-0.60938-0.60938-1.6016-0.60938-2.2109 0s-0.60938 1.6016 0 2.2109l3.582 3.582-3.582 3.582c-0.29297 0.29297-0.45703 0.69141-0.45703 1.1055s0.16406 0.8125 0.45703 1.1055z"></path><path d="m57.355 62.957c-0.29297-0.29297-0.69141-0.45703-1.1055-0.45703s-0.8125 0.16406-1.1055 0.45703l-4.6875 4.6875c-0.29297 0.29297-0.45703 0.69141-0.45703 1.1055s0.16406 0.8125 0.45703 1.1055l4.6875 4.6875c0.60938 0.60938 1.6016 0.60938 2.2109 0s0.60938-1.6016 0-2.2109l-3.582-3.582 3.582-3.582c0.29297-0.29297 0.45703-0.69141 0.45703-1.1055s-0.16406-0.8125-0.45703-1.1055z"></path></svg> 